<svg xmlns="http://www.w3.org/2000/svg" viewBox="0 0 128 128"><path fill="#000" d="M 25.828125 41.806641 C 24.67673 41.806641 23.744141 42.738033 23.744141 43.886719 L 23.744141 60.558594 C 23.744141 61.707279 24.67673 62.640625 25.828125 62.640625 L 42.533203 62.640625 C 43.684596 62.640625 44.617187 61.707279 44.617188 60.558594 L 44.617188 43.886719 C 44.617184 42.738033 43.684596 41.806641 42.533203 41.806641 L 25.828125 41.806641 z M 16.390625 45.214844 C 15.741782 45.214844 15.094709 45.461332 14.599609 45.955078 L 1.6464844 58.884766 C -0.22690206 60.755443 -0.22690206 63.789478 1.6464844 65.660156 L 20.818359 84.791016 C 22.6931 86.661696 25.730728 86.661696 27.605469 84.791016 L 40.558594 71.863281 C 41.548794 70.875791 41.548794 69.272645 40.558594 68.285156 L 40.458984 68.189453 C 39.983516 67.71399 39.339243 67.445913 38.666016 67.447266 L 22.492188 67.447266 C 21.546689 67.447266 20.638512 67.074056 19.970703 66.40625 C 19.30154 65.739795 18.925781 64.833412 18.925781 63.890625 L 18.925781 47.746094 C 18.927181 47.074221 18.659052 46.429181 18.183594 45.955078 C 17.688495 45.461332 17.039471 45.214844 16.390625 45.214844 z M 105.19336 52.605469 L 105.19336 70.837891 L 107.30469 70.837891 L 107.30469 52.605469 L 105.19336 52.605469 z M 100.08203 53.15625 C 99.73018 53.15625 99.435211 53.268282 99.195312 53.492188 C 98.955413 53.7001 98.835938 54.036195 98.835938 54.5 C 98.835937 54.947811 98.955414 55.283907 99.195312 55.507812 C 99.435211 55.731718 99.73018 55.84375 100.08203 55.84375 C 100.4019 55.84375 100.68196 55.731718 100.92188 55.507812 C 101.17776 55.283907 101.30664 54.947811 101.30664 54.5 C 101.30664 54.036195 101.17775 53.7001 100.92188 53.492188 C 100.68197 53.268282 100.4019 53.15625 100.08203 53.15625 z M 122.80078 53.46875 C 121.72923 53.46875 120.77891 53.644242 119.94727 53.996094 C 119.13161 54.347946 118.49115 54.852088 118.02734 55.507812 C 117.56354 56.147543 117.33203 56.922368 117.33203 57.833984 C 117.33203 59.161426 117.69986 60.208886 118.43555 60.976562 C 119.18723 61.744239 120.29071 62.392144 121.74609 62.919922 C 122.78565 63.287767 123.59221 63.640705 124.16797 63.976562 C 124.75972 64.296429 125.17612 64.647411 125.41602 65.03125 C 125.65592 65.415089 125.77539 65.887502 125.77539 66.447266 C 125.77539 67.294909 125.44869 67.967099 124.79297 68.462891 C 124.15324 68.958682 123.19352 69.205078 121.91406 69.205078 C 121.00244 69.205078 120.11363 69.102444 119.25 68.894531 C 118.40235 68.686618 117.69099 68.453157 117.11523 68.197266 L 117.11523 70.261719 C 117.659 70.517611 118.33864 70.717389 119.1543 70.861328 C 119.96995 71.005267 120.85876 71.076172 121.81836 71.076172 C 123.68957 71.076172 125.17576 70.652332 126.2793 69.804688 C 127.38283 68.957046 127.93555 67.775221 127.93555 66.255859 C 127.93555 65.360237 127.75065 64.615189 127.38281 64.023438 C 127.03096 63.431686 126.50449 62.927543 125.80078 62.511719 C 125.11307 62.0799 124.26539 61.680345 123.25781 61.3125 C 122.33021 60.960648 121.59455 60.63395 121.05078 60.330078 C 120.50701 60.026205 120.1149 59.682666 119.875 59.298828 C 119.6351 58.914989 119.51563 58.435132 119.51562 57.859375 C 119.51562 57.107692 119.78631 56.506406 120.33008 56.058594 C 120.87385 55.594789 121.68236 55.363281 122.75391 55.363281 C 123.50559 55.363281 124.2244 55.451027 124.91211 55.626953 C 125.61581 55.802879 126.26372 56.019499 126.85547 56.275391 L 127.52734 54.427734 C 126.88761 54.139856 126.17625 53.908348 125.39258 53.732422 C 124.60891 53.556496 123.74439 53.46875 122.80078 53.46875 z M 50.064453 53.708984 L 50.064453 70.837891 L 59.636719 70.837891 L 59.636719 68.941406 L 52.222656 68.941406 L 52.222656 62.824219 L 59.203125 62.824219 L 59.203125 60.953125 L 52.222656 60.953125 L 52.222656 55.603516 L 59.636719 55.603516 L 59.636719 53.708984 L 50.064453 53.708984 z M 111.55078 53.708984 L 111.55078 70.740234 C 111.55078 71.459932 111.43875 72.020091 111.21484 72.419922 C 110.99094 72.819754 110.69402 73.099833 110.32617 73.259766 C 109.97432 73.419698 109.59905 73.5 109.19922 73.5 C 108.87936 73.5 108.57499 73.475714 108.28711 73.427734 C 107.99923 73.379755 107.72855 73.323739 107.47266 73.259766 L 107.47266 75.083984 C 107.69656 75.179944 107.95235 75.250848 108.24023 75.298828 C 108.52811 75.362801 108.86226 75.394531 109.24609 75.394531 C 110.58953 75.394531 111.67067 75.00242 112.48633 74.21875 C 113.30199 73.43508 113.70898 72.219572 113.70898 70.572266 L 113.70898 53.708984 L 111.55078 53.708984 z M 69.039062 57.738281 C 68.271387 57.738281 67.545133 57.906329 66.857422 58.242188 C 66.185705 58.562053 65.649831 59.058751 65.25 59.730469 L 65.128906 59.730469 L 64.818359 57.978516 L 63.115234 57.978516 L 63.115234 70.837891 L 65.224609 70.837891 L 65.224609 64.167969 C 65.224609 62.664601 65.472959 61.512554 65.96875 60.712891 C 66.464541 59.913227 67.360795 59.513672 68.65625 59.513672 C 70.415509 59.513672 71.294922 60.529402 71.294922 62.560547 L 71.294922 70.837891 L 73.382812 70.837891 L 73.382812 63.736328 C 73.382812 62.360907 73.64605 61.313447 74.173828 60.59375 C 74.717599 59.874053 75.613853 59.513672 76.861328 59.513672 C 78.604594 59.513672 79.474609 60.529402 79.474609 62.560547 L 79.474609 70.837891 L 81.5625 70.837891 L 81.5625 62.464844 C 81.5625 60.801544 81.202119 59.600924 80.482422 58.865234 C 79.762725 58.11355 78.67609 57.738281 77.220703 57.738281 C 76.389053 57.738281 75.597386 57.913773 74.845703 58.265625 C 74.110012 58.617477 73.525568 59.162746 73.09375 59.898438 L 72.974609 59.898438 C 72.366865 58.459043 71.054215 57.738281 69.039062 57.738281 z M 90.414062 57.761719 C 89.582414 57.761719 88.783302 57.87375 88.015625 58.097656 C 87.247948 58.305569 86.585155 58.561362 86.025391 58.865234 L 86.671875 60.449219 C 87.199653 60.193327 87.767256 59.969263 88.375 59.777344 C 88.982744 59.569431 89.623205 59.466797 90.294922 59.466797 C 91.142565 59.466797 91.797914 59.674018 92.261719 60.089844 C 92.725523 60.505668 92.957031 61.248765 92.957031 62.320312 L 92.957031 63.087891 L 90.775391 63.160156 C 88.680273 63.224129 87.12867 63.608795 86.121094 64.3125 C 85.113518 65.00021 84.609375 65.982257 84.609375 67.261719 C 84.609375 68.573167 84.994041 69.542278 85.761719 70.166016 C 86.529395 70.77376 87.496555 71.076172 88.664062 71.076172 C 89.751604 71.076172 90.599287 70.908124 91.207031 70.572266 C 91.830769 70.236407 92.422657 69.717375 92.982422 69.013672 L 93.078125 69.013672 L 93.486328 70.837891 L 95.021484 70.837891 L 95.021484 62.080078 C 95.021484 60.576711 94.644261 59.482633 93.892578 58.794922 C 93.140895 58.107211 91.981404 57.761719 90.414062 57.761719 z M 99.003906 57.978516 L 99.003906 70.837891 L 101.11523 70.837891 L 101.11523 57.978516 L 99.003906 57.978516 z M 92.933594 64.552734 L 92.933594 65.703125 C 92.933594 66.9506 92.573213 67.878584 91.853516 68.486328 C 91.133819 69.078079 90.23012 69.373047 89.142578 69.373047 C 88.454867 69.373047 87.887264 69.204999 87.439453 68.869141 C 87.007634 68.533282 86.792969 68.006806 86.792969 67.287109 C 86.792969 66.471453 87.09538 65.838436 87.703125 65.390625 C 88.326862 64.942814 89.439736 64.68702 91.039062 64.623047 L 92.933594 64.552734 z " /></svg>
