<svg xmlns="http://www.w3.org/2000/svg" viewBox="0 0 128 128"><path d="M 1.9921875,-0.47851563 C 1.0337447,-0.37702716 0.2443112,0.1046472 -0.16796875,0.84960938 -0.5802487,1.5945716 -0.60700919,2.5523959 -0.25,3.5585938 L 42.650391,124.41406 c 0.819688,2.30928 3.309214,4.08594 5.740234,4.08594 h 33.1875 0.210937 c 0.521769,0 0.977788,-0.18415 1.320313,-0.48242 0.686581,-0.38812 1.302894,-0.96194 1.574219,-1.72656 L 84.890625,125.70898 128.25,3.5585938 c 0.40805,-1.1500594 0.30889,-2.2449545 -0.28125,-3.01367193 -0.59014,-0.76871744 -1.62125,-1.14116263 -2.82617,-1.0234375 L 91.044922,2.8496094 c -2.410508,0.2355485 -4.843137,2.1755635 -5.636719,4.484375 L 64.058594,69.443359 42.597656,7.3300781 C 41.800209,5.022585 39.365399,3.0851389 36.955078,2.8496094 L 2.8574219,-0.47851563 c -0.3023627,-0.0295419 -0.5922997,-0.0289007 -0.8652344,0 z m 0.1054688,0.99609375 c 0.2016044,-0.0213477 0.423691,-0.0232943 0.6621093,0 L 36.857422,3.8457031 c 1.915331,0.1871607 4.156255,1.9644531 4.794922,3.8125 L 64.060547,72.513672 86.353516,7.6582031 c 0.635378,-1.8485427 2.87393,-3.6253583 4.789062,-3.8125 L 125.24023,0.51757812 c 0.95821,-0.0936199 1.58876,0.18498357 1.93555,0.63671878 0.34679,0.4517352 0.45983,1.1466967 0.13281,2.0683594 L 83.949219,125.37305 l -0.207032,0.58203 c -0.170213,0.47968 -0.619544,0.94382 -1.158203,1.23633 l -0.05664,0.0293 -0.04492,0.043 C 82.334054,127.40146 82.117869,127.5 81.789062,127.5 h -0.210937 -33.1875 c -1.914926,0 -4.147783,-1.58771 -4.798828,-3.42187 L 0.69140625,3.2226563 C 0.40523094,2.4160973 0.46162749,1.7774125 0.70703125,1.3339844 0.95243501,0.89055626 1.3952118,0.5919592 2.0976563,0.51757812 Z"/></svg>
