<svg
  xmlns="http://www.w3.org/2000/svg"
  viewBox="0 0 128 128">
<g
     id="layer1"
     transform="translate(-48.300911,-91.20237)"><g
       clip-path="url(#_clipPath_8TWIgR1z3pxinjWBiigzcEIrVJKv9Gq4)"
       id="g3"
       transform="matrix(0.2984443,0,0,0.30235297,37.689836,79.614167)"
       style="isolation:isolate"><defs
         id="defs2"><filter
           id="filter2"
           x="-2"
           y="-2"
           width="4"
           height="4"
           filterUnits="objectBoundingBox"
           color-interpolation-filters="sRGB"><feGaussianBlur
             in="SourceGraphic"
             stdDeviation="6.440413594258542"
             id="feGaussianBlur2" /><feOffset
             dx="0"
             dy="0"
             result="pf_100_offsetBlur"
             id="feOffset2" /><feFlood
             flood-color="#000000"
             flood-opacity="0.65"
             id="feFlood2" /><feComposite
             in2="pf_100_offsetBlur"
             operator="in"
             result="pf_100_dropShadow"
             id="feComposite2" /><feBlend
             in="SourceGraphic"
             in2="pf_100_dropShadow"
             mode="normal"
             id="feBlend2" /></filter></defs><path
         d="M 318.422,453.543 463.705,49.541 c 2.463,-6.852 -1.42,-11.848 -8.668,-11.149 L 340.786,49.398 c -7.247,0.699 -15.076,6.848 -17.47,13.723 L 188.843,449.216 c -2.396,6.875 1.571,12.457 8.852,12.457 h 111.206 c 3.64,0 7.596,-2.78 8.828,-6.207 z"
         fill="#536b8a"
         id="path1" /><path
         d="M 301.848,455.466 241.359,280.725 250,275.324 311.57,453.543 Z"
         fill="#ebebeb"
         id="path2"
         style="isolation:isolate" /><path
         d="m 44.963,38.392 114.251,11.006 c 7.247,0.699 15.084,6.845 17.49,13.717 l 137.318,392.333 c 1.202,3.437 -0.777,6.225 -4.418,6.225 H 197.695 c -7.281,0 -15.193,-5.562 -17.657,-12.414 L 36.295,49.541 c -2.463,-6.852 1.42,-11.848 8.668,-11.149 z"
         fill="#5d87bf"
         id="path3" /></g></g></svg>
